<?xml version="1.0" encoding="utf-8"?><!-- Uploaded to: SVG Repo, www.svgrepo.com, Generator: SVG Repo Mixer Tools -->
<svg version="1.1" id="Uploaded to svgrepo.com" xmlns="http://www.w3.org/2000/svg" xmlns:xlink="http://www.w3.org/1999/xlink" 
	 width="800px" height="800px" viewBox="0 0 32 32" xml:space="preserve">
<style type="text/css">
	.linesandangles_een{fill:#111918;}
</style>
<path class="linesandangles_een" d="M23.129,16l-0.583,0.57C22.263,16.847,21.891,17,21.5,17c-0.827,0-1.5-0.673-1.5-1.5
	s0.673-1.5,1.5-1.5c0.391,0,0.763,0.153,1.046,0.43L23.129,15H26V9h-7l0-0.056l0,0c0.617-0.631,1-1.492,1-2.444
	C20,4.567,18.433,3,16.5,3S13,4.567,13,6.5c0,0.952,0.383,1.813,1,2.444V9H7v6h2.871l0.583-0.57C10.737,14.153,11.109,14,11.5,14
	c0.827,0,1.5,0.673,1.5,1.5S12.327,17,11.5,17c-0.391,0-0.763-0.153-1.046-0.43L9.871,16H7v12h9v-3.871l-0.57-0.583
	C15.153,23.263,15,22.891,15,22.5c0-0.827,0.673-1.5,1.5-1.5s1.5,0.673,1.5,1.5c0,0.391-0.153,0.763-0.43,1.046L17,24.129V28h9V16
	H23.129z M24,26h-5v-1.056c0.617-0.631,1-1.492,1-2.444c0-1.933-1.567-3.5-3.5-3.5S13,20.567,13,22.5c0,0.952,0.383,1.813,1,2.444
	V26H9v-8h0.056c0.631,0.617,1.492,1,2.444,1c1.933,0,3.5-1.567,3.5-3.5S13.433,12,11.5,12c-0.952,0-1.813,0.383-2.444,1H9v-2h7
	V8.129l-0.57-0.583C15.153,7.263,15,6.891,15,6.5C15,5.673,15.673,5,16.5,5S18,5.673,18,6.5c0,0.391-0.153,0.763-0.43,1.046
	L17,8.129V11h7v2h-0.056c-0.631-0.617-1.492-1-2.444-1c-1.933,0-3.5,1.567-3.5,3.5s1.567,3.5,3.5,3.5c0.952,0,1.813-0.383,2.444-1
	H24V26z"/>
</svg>